<svg width="1211" height="1211" viewBox="0 0 1211 1211" fill="none" xmlns="http://www.w3.org/2000/svg"><path d="M1129.26 908.246c-39.09 67.889-91.51 128.094-153.583 176.004-31.052 23.92-64.37 44.95-99.5 62.44-35.123 17.48-71.919 31.68-109.801 42.11-37.886 10.39-76.776 17.29-116.028 20.24a600.234 600.234 0 0 1-117.962-2.67c-39.139-4.76-77.875-13.29-115.42-25.63-37.55-12.31-73.913-28.36-108.434-47.75-69.013-38.81-130.65-91.27-179.648-153.978-48.996-62.67-85.641-135.18-106.83-212.15C.799 689.926-5.106 608.641 5.068 529.269c5.1-39.671 14.05-78.887 26.94-116.781 12.864-37.902 29.466-74.529 49.44-109.199 20.06-34.616 43.461-67.318 69.856-97.404 26.408-30.078 55.865-57.454 87.677-81.704 63.661-48.477 137-83.991 214.248-104.05C530.481.034 611.579-4.517 690.345 6.583c39.386 5.545 78.157 15.112 115.583 28.312 37.429 13.208 73.493 30.112 107.565 50.269 34.051 20.194 66.132 43.652 95.577 70.01 29.45 26.339 56.2 55.622 79.91 87.125a600.225 600.225 0 0 1 61.29 100.813c17.07 35.468 30.55 72.59 40.5 110.594 9.9 38.024 16.02 76.984 18.44 116.143 2.41 39.167.87 78.535-4.32 117.384-10.45 77.709-36.38 153.211-75.62 221.012l-.01.001Zm-1.33-.772c19.5-33.854 35.74-69.588 48.32-106.573a593.173 593.173 0 0 0 26.56-113.941c10.18-77.466 4.82-156.901-15.44-232.345-20.24-75.449-55.37-146.88-102.96-208.818a592.203 592.203 0 0 0-80.01-85.295c-29.385-25.708-61.321-48.491-95.133-68.019-33.833-19.49-69.543-35.724-106.505-48.288A592.345 592.345 0 0 0 688.895 17.65c-77.416-10.17-156.798-4.82-232.193 15.431-75.403 20.224-146.785 55.336-208.683 102.889a591.925 591.925 0 0 0-85.239 79.957c-25.69 29.37-48.461 61.284-67.977 95.074-19.497 33.801-35.756 69.471-48.346 106.408a592 592 0 0 0-26.625 113.799c-10.232 77.38-4.95 156.754 15.239 232.166 20.159 75.421 55.216 146.842 102.733 208.801a592.562 592.562 0 0 0 79.921 85.335c29.362 25.73 61.275 48.54 95.071 68.1 33.818 19.51 69.517 35.78 106.474 48.38a593.207 593.207 0 0 0 113.873 26.64c77.432 10.24 156.858 4.95 232.317-15.25 75.466-20.17 146.936-55.25 208.936-102.8a592.83 592.83 0 0 0 85.394-79.97c25.75-29.384 48.57-61.319 68.14-95.136Z" fill="#fff"/></svg>